<mxfile host="app.diagrams.net" modified="2023-02-23T13:48:37.337Z" agent="5.0 (Windows)" etag="EjEdZAyPgrPB5BNcSyQi" version="20.8.23" type="github">
  <diagram name="Strona-1" id="NyV_YS295EXHWpBhlVbZ">
    <mxGraphModel dx="1434" dy="782" grid="1" gridSize="10" guides="1" tooltips="1" connect="1" arrows="1" fold="1" page="1" pageScale="1" pageWidth="827" pageHeight="1169" math="0" shadow="0">
      <root>
        <mxCell id="0" />
        <mxCell id="1" parent="0" />
        <mxCell id="C_rNPjtVSyhyU5xmQas6-5" style="edgeStyle=orthogonalEdgeStyle;rounded=0;orthogonalLoop=1;jettySize=auto;html=1;exitX=0.5;exitY=1;exitDx=0;exitDy=0;entryX=0.5;entryY=0;entryDx=0;entryDy=0;" parent="1" source="C_rNPjtVSyhyU5xmQas6-1" target="C_rNPjtVSyhyU5xmQas6-2" edge="1">
          <mxGeometry relative="1" as="geometry" />
        </mxCell>
        <mxCell id="C_rNPjtVSyhyU5xmQas6-1" value="START" style="ellipse;whiteSpace=wrap;html=1;" parent="1" vertex="1">
          <mxGeometry x="340" y="70" width="150" height="80" as="geometry" />
        </mxCell>
        <mxCell id="C_rNPjtVSyhyU5xmQas6-7" style="edgeStyle=orthogonalEdgeStyle;rounded=0;orthogonalLoop=1;jettySize=auto;html=1;exitX=0.5;exitY=1;exitDx=0;exitDy=0;entryX=0.5;entryY=0;entryDx=0;entryDy=0;" parent="1" source="C_rNPjtVSyhyU5xmQas6-2" target="C_rNPjtVSyhyU5xmQas6-6" edge="1">
          <mxGeometry relative="1" as="geometry" />
        </mxCell>
        <mxCell id="C_rNPjtVSyhyU5xmQas6-2" value="a = [1, 3, 4, 6]" style="rounded=0;whiteSpace=wrap;html=1;" parent="1" vertex="1">
          <mxGeometry x="355" y="210" width="120" height="60" as="geometry" />
        </mxCell>
        <mxCell id="C_rNPjtVSyhyU5xmQas6-10" style="edgeStyle=orthogonalEdgeStyle;rounded=0;orthogonalLoop=1;jettySize=auto;html=1;exitX=0.5;exitY=1;exitDx=0;exitDy=0;entryX=0.5;entryY=0;entryDx=0;entryDy=0;" parent="1" source="C_rNPjtVSyhyU5xmQas6-6" target="C_rNPjtVSyhyU5xmQas6-8" edge="1">
          <mxGeometry relative="1" as="geometry" />
        </mxCell>
        <mxCell id="C_rNPjtVSyhyU5xmQas6-6" value="&lt;div&gt;i = 0&lt;br&gt;&lt;/div&gt;&lt;div&gt;iloczyn = 0&lt;br&gt;&lt;/div&gt;" style="rounded=0;whiteSpace=wrap;html=1;" parent="1" vertex="1">
          <mxGeometry x="355" y="330" width="120" height="60" as="geometry" />
        </mxCell>
        <mxCell id="C_rNPjtVSyhyU5xmQas6-12" style="edgeStyle=orthogonalEdgeStyle;rounded=0;orthogonalLoop=1;jettySize=auto;html=1;exitX=0;exitY=0.5;exitDx=0;exitDy=0;entryX=1;entryY=0.5;entryDx=0;entryDy=0;" parent="1" source="C_rNPjtVSyhyU5xmQas6-8" target="C_rNPjtVSyhyU5xmQas6-11" edge="1">
          <mxGeometry relative="1" as="geometry" />
        </mxCell>
        <mxCell id="C_rNPjtVSyhyU5xmQas6-15" style="edgeStyle=orthogonalEdgeStyle;rounded=0;orthogonalLoop=1;jettySize=auto;html=1;exitX=1;exitY=0.5;exitDx=0;exitDy=0;" parent="1" source="C_rNPjtVSyhyU5xmQas6-8" edge="1">
          <mxGeometry relative="1" as="geometry">
            <mxPoint x="580" y="540" as="targetPoint" />
          </mxGeometry>
        </mxCell>
        <mxCell id="C_rNPjtVSyhyU5xmQas6-8" value="i &amp;gt; a dÅ‚" style="rhombus;whiteSpace=wrap;html=1;" parent="1" vertex="1">
          <mxGeometry x="355" y="430" width="120" height="80" as="geometry" />
        </mxCell>
        <mxCell id="C_rNPjtVSyhyU5xmQas6-13" style="edgeStyle=orthogonalEdgeStyle;rounded=0;orthogonalLoop=1;jettySize=auto;html=1;exitX=0.5;exitY=0;exitDx=0;exitDy=0;entryX=0.5;entryY=0;entryDx=0;entryDy=0;" parent="1" source="C_rNPjtVSyhyU5xmQas6-11" target="C_rNPjtVSyhyU5xmQas6-8" edge="1">
          <mxGeometry relative="1" as="geometry" />
        </mxCell>
        <mxCell id="C_rNPjtVSyhyU5xmQas6-11" value="&lt;div&gt;iloczyn * a[i]&lt;/div&gt;&lt;div&gt;i = i * 1&lt;br&gt;&lt;/div&gt;" style="rounded=0;whiteSpace=wrap;html=1;" parent="1" vertex="1">
          <mxGeometry x="200" y="440" width="120" height="60" as="geometry" />
        </mxCell>
        <mxCell id="C_rNPjtVSyhyU5xmQas6-14" value="NIE" style="text;html=1;align=center;verticalAlign=middle;resizable=0;points=[];autosize=1;strokeColor=none;fillColor=none;" parent="1" vertex="1">
          <mxGeometry x="320" y="440" width="40" height="30" as="geometry" />
        </mxCell>
        <mxCell id="C_rNPjtVSyhyU5xmQas6-16" value="TAK" style="text;html=1;align=center;verticalAlign=middle;resizable=0;points=[];autosize=1;strokeColor=none;fillColor=none;" parent="1" vertex="1">
          <mxGeometry x="500" y="435" width="40" height="30" as="geometry" />
        </mxCell>
        <mxCell id="VDTEV54LyrA9mSIGd2R0-3" style="edgeStyle=orthogonalEdgeStyle;rounded=0;orthogonalLoop=1;jettySize=auto;html=1;exitX=0.5;exitY=1;exitDx=0;exitDy=0;entryX=0.5;entryY=0;entryDx=0;entryDy=0;" edge="1" parent="1" source="VDTEV54LyrA9mSIGd2R0-1" target="VDTEV54LyrA9mSIGd2R0-2">
          <mxGeometry relative="1" as="geometry" />
        </mxCell>
        <mxCell id="VDTEV54LyrA9mSIGd2R0-1" value="wyswietl iloczyn" style="rounded=0;whiteSpace=wrap;html=1;" vertex="1" parent="1">
          <mxGeometry x="520" y="540" width="120" height="60" as="geometry" />
        </mxCell>
        <mxCell id="VDTEV54LyrA9mSIGd2R0-2" value="STOP" style="ellipse;whiteSpace=wrap;html=1;" vertex="1" parent="1">
          <mxGeometry x="520" y="640" width="120" height="80" as="geometry" />
        </mxCell>
      </root>
    </mxGraphModel>
  </diagram>
</mxfile>
